<svg width="58" height="58" viewBox="0 0 58 58" fill="none" xmlns="http://www.w3.org/2000/svg">
<g clip-path="url(#clip0_140_458)">
<path d="M29 28.9999C31.8678 28.9999 34.6713 28.1495 37.0558 26.5562C39.4403 24.9629 41.2988 22.6983 42.3963 20.0488C43.4937 17.3993 43.7809 14.4838 43.2214 11.6711C42.6619 8.85835 41.2809 6.2747 39.2531 4.24684C37.2252 2.21897 34.6415 0.837984 31.8288 0.278498C29.0161 -0.280988 26.1006 0.00616058 23.4511 1.10363C20.8016 2.2011 18.537 4.0596 16.9437 6.44412C15.3504 8.82863 14.5 11.6321 14.5 14.4999C14.5038 18.3443 16.0327 22.0302 18.7512 24.7487C21.4696 27.4671 25.1555 28.996 29 28.9999ZM29 4.83322C30.9119 4.83322 32.7808 5.40016 34.3705 6.46235C35.9602 7.52453 37.1992 9.03426 37.9308 10.8006C38.6625 12.567 38.8539 14.5106 38.4809 16.3858C38.1079 18.2609 37.1873 19.9833 35.8354 21.3353C34.4835 22.6872 32.761 23.6078 30.8859 23.9808C29.0107 24.3538 27.0671 24.1624 25.3007 23.4307C23.5344 22.6991 22.0246 21.4601 20.9625 19.8704C19.9003 18.2807 19.3333 16.4118 19.3333 14.4999C19.3333 11.9361 20.3518 9.47737 22.1646 7.66452C23.9775 5.85167 26.4362 4.83322 29 4.83322V4.83322Z" fill="#E31111"/>
<path d="M29 33.8348C23.2335 33.8412 17.705 36.1348 13.6275 40.2123C9.54996 44.2899 7.2564 49.8183 7.25 55.5848C7.25 56.2258 7.50461 56.8405 7.95783 57.2937C8.41104 57.7469 9.02573 58.0015 9.66667 58.0015C10.3076 58.0015 10.9223 57.7469 11.3755 57.2937C11.8287 56.8405 12.0833 56.2258 12.0833 55.5848C12.0833 51.0983 13.8656 46.7954 17.0381 43.623C20.2106 40.4505 24.5134 38.6682 29 38.6682C33.4866 38.6682 37.7894 40.4505 40.9619 43.623C44.1344 46.7954 45.9167 51.0983 45.9167 55.5848C45.9167 56.2258 46.1713 56.8405 46.6245 57.2937C47.0777 57.7469 47.6924 58.0015 48.3333 58.0015C48.9743 58.0015 49.589 57.7469 50.0422 57.2937C50.4954 56.8405 50.75 56.2258 50.75 55.5848C50.7436 49.8183 48.45 44.2899 44.3725 40.2123C40.295 36.1348 34.7665 33.8412 29 33.8348V33.8348Z" fill="#E31111"/>
</g>
<defs>
<clipPath id="clip0_140_458">
<rect width="58" height="58" fill="white"/>
</clipPath>
</defs>
</svg>
