<svg width="510" height="511" viewBox="0 0 510 511" fill="none" xmlns="http://www.w3.org/2000/svg">
<path fill-rule="evenodd" clip-rule="evenodd" d="M239.976 445.511C156.993 438.953 88.8313 379.33 69.6734 300.437H100.83C119.081 362.482 173.629 409.091 239.976 415.346V300.437H270.124V354.512C302.894 349.67 330.421 328.887 344.84 300.437H377.609C360.973 345.735 319.733 379.229 270.225 384.878V415.245V445.511V476.18H239.976V445.511ZM475.919 240.107V270.273H445.267C438.712 353.402 379.021 421.601 300.172 440.669V409.495C362.182 391.336 408.766 336.655 415.018 270.273H300.273V240.107H354.318C349.478 207.421 328.707 179.979 300.273 165.553V132.664C345.546 149.512 379.122 190.573 384.667 240.107H415.018H445.267H475.919ZM239.976 34.3008H270.124V64.9699C353.208 71.427 421.37 131.151 440.427 209.943H409.27C391.121 147.898 336.471 101.39 270.124 95.2355V209.943H239.976V155.868C207.307 160.913 179.881 181.493 165.462 209.943H132.592C149.43 164.645 190.468 131.151 239.976 125.502V95.2355V64.9699V34.3008ZM34.2822 270.273V240.107H64.9345C71.2867 157.079 131.079 88.8798 209.928 69.7115V100.885C147.716 119.146 101.334 173.725 95.0827 240.107H209.928V270.273H155.782C160.824 303.06 181.393 330.602 209.928 345.029V377.817C164.555 361.171 131.079 319.908 125.332 270.374H95.0827H64.8337H34.2822V270.273Z" fill="#13110C"/>
<path fill-rule="evenodd" clip-rule="evenodd" d="M484.792 280.462C498.707 280.462 510 269.163 510 255.241C510 241.318 498.707 229.817 484.792 229.817C470.878 229.817 459.383 241.218 459.383 255.241C459.484 269.163 470.878 280.462 484.792 280.462Z" fill="#13110C"/>
<path fill-rule="evenodd" clip-rule="evenodd" d="M484.792 265.633C490.54 265.633 495.178 260.992 495.178 255.241C495.178 249.491 490.54 244.749 484.792 244.749C479.045 244.749 474.306 249.491 474.306 255.241C474.306 260.992 479.146 265.633 484.792 265.633Z" fill="#E31111"/>
<path fill-rule="evenodd" clip-rule="evenodd" d="M280.308 485.058C280.308 471.136 269.015 459.635 255.1 459.635C241.085 459.635 229.691 471.035 229.691 485.058C229.691 498.98 240.984 510.28 255.1 510.28C269.015 510.38 280.308 499.082 280.308 485.058Z" fill="#13110C"/>
<path fill-rule="evenodd" clip-rule="evenodd" d="M265.487 485.058C265.487 479.308 260.849 474.566 255.101 474.566C249.253 474.566 244.615 479.308 244.615 485.058C244.615 490.809 249.253 495.449 255.101 495.449C260.849 495.449 265.487 490.809 265.487 485.058Z" fill="#E31111"/>
<path fill-rule="evenodd" clip-rule="evenodd" d="M25.4093 280.462C39.3239 280.462 50.6168 269.163 50.6168 255.241C50.6168 241.218 39.3239 229.817 25.4093 229.817C11.293 229.817 0 241.218 0 255.241C0 269.163 11.293 280.462 25.4093 280.462Z" fill="#13110C"/>
<path fill-rule="evenodd" clip-rule="evenodd" d="M25.4097 265.633C31.157 265.633 35.7952 260.992 35.7952 255.241C35.7952 249.39 31.157 244.749 25.4097 244.749C19.5615 244.749 14.9233 249.39 14.9233 255.241C14.9233 260.992 19.5615 265.633 25.4097 265.633Z" fill="#E31111"/>
<path fill-rule="evenodd" clip-rule="evenodd" d="M229.691 25.4232C229.691 39.3455 240.984 50.6446 255.1 50.6446C269.015 50.6446 280.308 39.3455 280.308 25.4232C280.308 11.2992 269.015 0 255.1 0C241.085 0 229.691 11.2992 229.691 25.4232Z" fill="#13110C"/>
<path fill-rule="evenodd" clip-rule="evenodd" d="M244.615 25.4233C244.615 31.1739 249.253 35.8146 255.101 35.8146C260.849 35.8146 265.487 31.1739 265.487 25.4233C265.487 19.572 260.849 14.9312 255.101 14.9312C249.253 14.9312 244.615 19.572 244.615 25.4233Z" fill="#E31111"/>
<path fill-rule="evenodd" clip-rule="evenodd" d="M300.273 447.428C312.574 447.428 322.657 437.441 322.657 425.031C322.657 412.723 312.574 402.736 300.273 402.736C287.971 402.736 277.989 412.723 277.989 425.031C277.989 437.441 287.971 447.428 300.273 447.428Z" fill="#13110C"/>
<path fill-rule="evenodd" clip-rule="evenodd" d="M300.273 434.01C305.112 434.01 309.247 430.076 309.247 425.031C309.247 420.189 305.213 416.053 300.273 416.053C295.332 416.053 291.299 420.088 291.299 425.031C291.299 430.076 295.332 434.01 300.273 434.01Z" fill="#E31111"/>
<path fill-rule="evenodd" clip-rule="evenodd" d="M314.793 280.462C328.707 280.462 340 269.163 340 255.241C340 241.318 328.707 229.817 314.793 229.817C300.878 229.817 289.383 241.218 289.383 255.241C289.383 269.163 300.878 280.462 314.793 280.462Z" fill="#13110C"/>
<path fill-rule="evenodd" clip-rule="evenodd" d="M314.793 265.633C320.54 265.633 325.178 260.992 325.178 255.241C325.178 249.491 320.54 244.749 314.793 244.749C309.045 244.749 304.306 249.491 304.306 255.241C304.306 260.992 309.045 265.633 314.793 265.633Z" fill="#E31111"/>
<path fill-rule="evenodd" clip-rule="evenodd" d="M280.308 195.517C280.308 181.494 269.015 170.094 255.1 170.094C241.085 170.094 229.691 181.392 229.691 195.517C229.691 209.439 240.984 220.738 255.1 220.738C269.015 220.839 280.308 209.439 280.308 195.517Z" fill="#13110C"/>
<path fill-rule="evenodd" clip-rule="evenodd" d="M265.487 195.517C265.487 189.665 260.849 185.024 255.101 185.024C249.253 185.024 244.615 189.665 244.615 195.517C244.615 201.267 249.253 205.908 255.101 205.908C260.849 205.908 265.487 201.267 265.487 195.517Z" fill="#E31111"/>
<path fill-rule="evenodd" clip-rule="evenodd" d="M195.41 229.817C181.394 229.817 170 241.117 170 255.241C170 269.163 181.293 280.462 195.41 280.462C209.324 280.462 220.617 269.163 220.617 255.241C220.718 241.218 209.324 229.817 195.41 229.817Z" fill="#13110C"/>
<path fill-rule="evenodd" clip-rule="evenodd" d="M195.409 244.749C189.561 244.749 184.923 249.39 184.923 255.241C184.923 260.992 189.561 265.633 195.409 265.633C201.156 265.633 205.794 260.992 205.794 255.241C205.794 249.39 201.156 244.749 195.409 244.749Z" fill="#E31111"/>
<path fill-rule="evenodd" clip-rule="evenodd" d="M229.691 314.965C229.691 328.887 240.984 340.186 255.1 340.186C269.015 340.186 280.308 328.887 280.308 314.965C280.308 300.942 269.015 289.542 255.1 289.542C241.085 289.542 229.691 300.841 229.691 314.965Z" fill="#13110C"/>
<path fill-rule="evenodd" clip-rule="evenodd" d="M244.615 314.966C244.615 320.716 249.253 325.357 255.101 325.357C260.849 325.357 265.487 320.716 265.487 314.966C265.487 309.114 260.849 304.473 255.101 304.473C249.253 304.473 244.615 309.114 244.615 314.966Z" fill="#E31111"/>
</svg>
