<svg width="228" height="62" viewBox="0 0 228 62" fill="none" xmlns="http://www.w3.org/2000/svg">
<path fill-rule="evenodd" clip-rule="evenodd" d="M28.8168 53.4977C18.852 52.7102 10.6671 45.5506 8.36654 36.0771H12.108C14.2995 43.5275 20.8498 49.1244 28.8168 49.8755V36.0771H32.4371V42.5704C36.3721 41.989 39.6776 39.4934 41.409 36.0771H45.3441C43.3463 41.5165 38.3941 45.5385 32.4492 46.2169V49.8634V53.4977V57.1806H28.8168V53.4977ZM57.1493 28.8325V32.4548H53.4685C52.6814 42.4371 45.5136 50.6266 36.0452 52.9162V49.1728C43.4916 46.9922 49.0854 40.4262 49.8361 32.4548H36.0573V28.8325H42.5472C41.966 24.9074 39.4718 21.6123 36.0573 19.8799V15.9306C41.4938 17.9537 45.5257 22.8843 46.1916 28.8325H49.8361H53.4685H57.1493ZM28.8168 4.1189H32.4371V7.8017C42.4139 8.57707 50.5989 15.7489 52.8873 25.2103H49.1459C46.9665 17.7599 40.4041 12.1751 32.4371 11.4361V25.2103H28.8168V18.7169C24.8939 19.3227 21.6005 21.794 19.8691 25.2103H15.9219C17.9439 19.7709 22.8718 15.7489 28.8168 15.0705V11.4361V7.8017V4.1189ZM4.1167 32.4548V28.8325H7.79748C8.56026 18.8623 15.7403 10.6729 25.2086 8.37107V12.1145C17.7381 14.3073 12.1684 20.8612 11.4178 28.8325H25.2086V32.4548H18.7067C19.3121 36.392 21.7821 39.6993 25.2086 41.4317V45.3689C19.7602 43.37 15.7403 38.4151 15.0502 32.4669H11.4178H7.78538H4.1167V32.4548Z" fill="white"/>
<path fill-rule="evenodd" clip-rule="evenodd" d="M58.2148 33.6784C59.8857 33.6784 61.2418 32.3215 61.2418 30.6497C61.2418 28.9779 59.8857 27.5969 58.2148 27.5969C56.5439 27.5969 55.1636 28.9658 55.1636 30.6497C55.1757 32.3215 56.5439 33.6784 58.2148 33.6784Z" fill="white"/>
<path fill-rule="evenodd" clip-rule="evenodd" d="M58.2147 31.8976C58.9049 31.8976 59.4619 31.3403 59.4619 30.6497C59.4619 29.9592 58.9049 29.3899 58.2147 29.3899C57.5246 29.3899 56.9556 29.9592 56.9556 30.6497C56.9556 31.3403 57.5367 31.8976 58.2147 31.8976Z" fill="#E31111"/>
<path fill-rule="evenodd" clip-rule="evenodd" d="M33.6597 58.2465C33.6597 56.5747 32.3036 55.1936 30.6327 55.1936C28.9497 55.1936 27.5815 56.5626 27.5815 58.2465C27.5815 59.9183 28.9376 61.2751 30.6327 61.2751C32.3036 61.2872 33.6597 59.9305 33.6597 58.2465Z" fill="white"/>
<path fill-rule="evenodd" clip-rule="evenodd" d="M31.8803 58.2467C31.8803 57.5562 31.3233 56.9868 30.6332 56.9868C29.9309 56.9868 29.374 57.5562 29.374 58.2467C29.374 58.9373 29.9309 59.4945 30.6332 59.4945C31.3233 59.4945 31.8803 58.9373 31.8803 58.2467Z" fill="#E31111"/>
<path fill-rule="evenodd" clip-rule="evenodd" d="M3.05119 33.6784C4.72208 33.6784 6.07815 32.3215 6.07815 30.6497C6.07815 28.9658 4.72208 27.5969 3.05119 27.5969C1.35609 27.5969 0 28.9658 0 30.6497C0 32.3215 1.35609 33.6784 3.05119 33.6784Z" fill="white"/>
<path fill-rule="evenodd" clip-rule="evenodd" d="M3.05121 31.8976C3.74136 31.8976 4.29832 31.3403 4.29832 30.6497C4.29832 29.9471 3.74136 29.3899 3.05121 29.3899C2.34895 29.3899 1.79199 29.9471 1.79199 30.6497C1.79199 31.3403 2.34895 31.8976 3.05121 31.8976Z" fill="#E31111"/>
<path fill-rule="evenodd" clip-rule="evenodd" d="M27.5815 3.05286C27.5815 4.72467 28.9376 6.08149 30.6327 6.08149C32.3036 6.08149 33.6597 4.72467 33.6597 3.05286C33.6597 1.35683 32.3036 0 30.6327 0C28.9497 0 27.5815 1.35683 27.5815 3.05286Z" fill="white"/>
<path fill-rule="evenodd" clip-rule="evenodd" d="M29.374 3.05288C29.374 3.74341 29.9309 4.30067 30.6332 4.30067C31.3233 4.30067 31.8803 3.74341 31.8803 3.05288C31.8803 2.35023 31.3233 1.79297 30.6332 1.79297C29.9309 1.79297 29.374 2.35023 29.374 3.05288Z" fill="#E31111"/>
<path fill-rule="evenodd" clip-rule="evenodd" d="M36.0572 53.7278C37.5343 53.7278 38.7451 52.5285 38.7451 51.0383C38.7451 49.5604 37.5343 48.3611 36.0572 48.3611C34.58 48.3611 33.3813 49.5604 33.3813 51.0383C33.3813 52.5285 34.58 53.7278 36.0572 53.7278Z" fill="white"/>
<path fill-rule="evenodd" clip-rule="evenodd" d="M36.0571 52.1166C36.6383 52.1166 37.1348 51.6441 37.1348 51.0383C37.1348 50.4569 36.6504 49.9602 36.0571 49.9602C35.4638 49.9602 34.9795 50.4448 34.9795 51.0383C34.9795 51.6441 35.4638 52.1166 36.0571 52.1166Z" fill="#E31111"/>
<path fill-rule="evenodd" clip-rule="evenodd" d="M37.8007 33.6784C39.4716 33.6784 40.8276 32.3215 40.8276 30.6497C40.8276 28.9779 39.4716 27.5969 37.8007 27.5969C36.1298 27.5969 34.7495 28.9658 34.7495 30.6497C34.7495 32.3215 36.1298 33.6784 37.8007 33.6784Z" fill="white"/>
<path fill-rule="evenodd" clip-rule="evenodd" d="M37.8007 31.8976C38.4909 31.8976 39.0478 31.3403 39.0478 30.6497C39.0478 29.9592 38.4909 29.3899 37.8007 29.3899C37.1106 29.3899 36.5415 29.9592 36.5415 30.6497C36.5415 31.3403 37.1106 31.8976 37.8007 31.8976Z" fill="#E31111"/>
<path fill-rule="evenodd" clip-rule="evenodd" d="M33.6597 23.4779C33.6597 21.794 32.3036 20.425 30.6327 20.425C28.9497 20.425 27.5815 21.7818 27.5815 23.4779C27.5815 25.1497 28.9376 26.5064 30.6327 26.5064C32.3036 26.5186 33.6597 25.1497 33.6597 23.4779Z" fill="white"/>
<path fill-rule="evenodd" clip-rule="evenodd" d="M31.8803 23.478C31.8803 22.7753 31.3233 22.218 30.6332 22.218C29.9309 22.218 29.374 22.7753 29.374 23.478C29.374 24.1685 29.9309 24.7257 30.6332 24.7257C31.3233 24.7257 31.8803 24.1685 31.8803 23.478Z" fill="#E31111"/>
<path fill-rule="evenodd" clip-rule="evenodd" d="M23.4653 27.5969C21.7822 27.5969 20.4141 28.9537 20.4141 30.6497C20.4141 32.3215 21.7701 33.6784 23.4653 33.6784C25.1362 33.6784 26.4922 32.3215 26.4922 30.6497C26.5043 28.9658 25.1362 27.5969 23.4653 27.5969Z" fill="white"/>
<path fill-rule="evenodd" clip-rule="evenodd" d="M23.4649 29.3899C22.7626 29.3899 22.2056 29.9471 22.2056 30.6497C22.2056 31.3403 22.7626 31.8976 23.4649 31.8976C24.155 31.8976 24.712 31.3403 24.712 30.6497C24.712 29.9471 24.155 29.3899 23.4649 29.3899Z" fill="#E31111"/>
<path fill-rule="evenodd" clip-rule="evenodd" d="M27.5815 37.8217C27.5815 39.4935 28.9376 40.8502 30.6327 40.8502C32.3036 40.8502 33.6597 39.4935 33.6597 37.8217C33.6597 36.1378 32.3036 34.7688 30.6327 34.7688C28.9497 34.7688 27.5815 36.1256 27.5815 37.8217Z" fill="white"/>
<path fill-rule="evenodd" clip-rule="evenodd" d="M29.374 37.8215C29.374 38.512 29.9309 39.0692 30.6332 39.0692C31.3233 39.0692 31.8803 38.512 31.8803 37.8215C31.8803 37.1188 31.3233 36.5615 30.6332 36.5615C29.9309 36.5615 29.374 37.1188 29.374 37.8215Z" fill="#E31111"/>
<path d="M82.3191 41.7836C82.2064 41.8287 81.981 41.9415 81.6428 42.1219C81.3047 42.3024 80.8764 42.4715 80.3579 42.6294C79.8394 42.7648 79.2646 42.8324 78.6334 42.8324C78.0247 42.8324 77.4499 42.7196 76.9088 42.4941C76.3903 42.246 75.9733 41.8851 75.6577 41.4114C75.3421 40.9378 75.1843 40.3626 75.1843 39.686V26.4234H72.7158V25.0363H75.1843V19.014H76.875V25.0363H80.9666V26.4234H76.875V39.28C76.9201 39.9341 77.1568 40.4303 77.5851 40.7686C78.0134 41.0844 78.5094 41.2423 79.073 41.2423C79.7718 41.2423 80.3804 41.1295 80.8989 40.9039C81.4174 40.6558 81.7217 40.4979 81.8119 40.4303L82.3191 41.7836ZM91.434 42.9678C90.1941 42.9678 89.0444 42.7309 87.9849 42.2573C86.9254 41.761 86.0011 41.0957 85.2121 40.2611C84.4457 39.404 83.837 38.4229 83.3862 37.3176C82.9578 36.1899 82.7437 35.0057 82.7437 33.7652C82.7437 32.0961 83.1157 30.5849 83.8596 29.2316C84.6035 27.8782 85.6292 26.7956 86.9367 25.9836C88.2442 25.1491 89.7095 24.7318 91.3325 24.7318C93.0007 24.7318 94.4773 25.1491 95.7622 25.9836C97.0472 26.8182 98.0616 27.9234 98.8055 29.2992C99.572 30.6526 99.9552 32.1412 99.9552 33.7652C99.9552 33.9005 99.9552 34.0358 99.9552 34.1712C99.9552 34.3065 99.944 34.4193 99.9214 34.5095H84.502C84.5922 35.8403 84.9642 37.047 85.6179 38.1296C86.2717 39.2123 87.1057 40.0694 88.1202 40.7009C89.1572 41.3099 90.2843 41.6144 91.5016 41.6144C92.7189 41.6144 93.8686 41.2987 94.9507 40.6671C96.0328 40.0356 96.7879 39.2236 97.2163 38.2311L98.7041 38.6371C98.366 39.4717 97.8249 40.216 97.081 40.8701C96.3596 41.5242 95.503 42.043 94.5111 42.4264C93.5418 42.7873 92.5161 42.9678 91.434 42.9678ZM84.4344 33.19H98.3321C98.242 31.8142 97.8813 30.5962 97.2501 29.5361C96.6189 28.476 95.7848 27.6414 94.7478 27.0324C93.7334 26.4234 92.6062 26.1189 91.3664 26.1189C90.1265 26.1189 88.9994 26.4234 87.9849 27.0324C86.9705 27.6414 86.1477 28.476 85.5165 29.5361C84.8853 30.5962 84.5246 31.8142 84.4344 33.19ZM110.133 42.9678C108.916 42.9678 107.778 42.7309 106.718 42.2573C105.659 41.761 104.734 41.0957 103.945 40.2611C103.156 39.404 102.536 38.4229 102.086 37.3176C101.657 36.2124 101.443 35.0283 101.443 33.7652C101.443 32.0735 101.815 30.5511 102.559 29.1977C103.303 27.8444 104.329 26.7618 105.636 25.9498C106.944 25.1378 108.431 24.7318 110.1 24.7318C111.7 24.7318 113.109 25.1039 114.326 25.8483C115.544 26.57 116.457 27.5625 117.065 28.8256L115.409 29.3669C114.89 28.397 114.146 27.6414 113.177 27.1001C112.23 26.5362 111.182 26.2543 110.032 26.2543C108.747 26.2543 107.586 26.5813 106.549 27.2354C105.512 27.8895 104.678 28.7917 104.047 29.9421C103.438 31.0698 103.134 32.3442 103.134 33.7652C103.134 35.1636 103.449 36.4493 104.081 37.6221C104.712 38.795 105.546 39.7311 106.583 40.4303C107.642 41.1069 108.803 41.4453 110.066 41.4453C110.877 41.4453 111.666 41.2987 112.433 41.0054C113.222 40.6897 113.898 40.2837 114.462 39.7875C115.048 39.2912 115.431 38.7612 115.611 38.1973L117.268 38.671C116.975 39.5055 116.468 40.2498 115.747 40.9039C115.025 41.5355 114.18 42.043 113.211 42.4264C112.264 42.7873 111.238 42.9678 110.133 42.9678ZM134.443 42.6294H132.752V32.8179C132.752 30.6526 132.38 29.0286 131.636 27.9459C130.893 26.8407 129.81 26.2881 128.39 26.2881C127.466 26.2881 126.542 26.5249 125.617 26.9986C124.693 27.4723 123.893 28.1264 123.217 28.9609C122.54 29.7729 122.056 30.6977 121.763 31.7352V42.6294H120.072V17.9314H121.763V29.2316C122.484 27.8557 123.487 26.7618 124.772 25.9498C126.057 25.1378 127.421 24.7318 128.864 24.7318C129.856 24.7318 130.701 24.9122 131.4 25.2731C132.099 25.634 132.673 26.1528 133.124 26.8294C133.575 27.5061 133.902 28.3181 134.105 29.2654C134.33 30.2127 134.443 31.2954 134.443 32.5134V42.6294ZM147.975 41.7159C147.659 41.8738 147.265 42.043 146.791 42.2234C146.318 42.4039 145.777 42.5618 145.168 42.6971C144.582 42.8324 143.973 42.9001 143.342 42.9001C142.576 42.9001 141.866 42.7648 141.212 42.4941C140.558 42.2234 140.028 41.7949 139.623 41.2084C139.239 40.5994 139.048 39.8213 139.048 38.874V27.8106H136.715V24.9348H139.048V19.1155H142.767V24.9348H146.622V27.8106H142.767V37.6898C142.812 38.2988 143.004 38.7499 143.342 39.0431C143.703 39.3363 144.142 39.483 144.661 39.483C145.179 39.483 145.675 39.3927 146.149 39.2123C146.622 39.0318 146.972 38.8852 147.197 38.7725L147.975 41.7159ZM148.252 37.453C148.252 36.3252 148.568 35.3441 149.199 34.5095C149.853 33.6524 150.743 32.9983 151.87 32.5472C152.997 32.0735 154.305 31.8367 155.793 31.8367C156.582 31.8367 157.382 31.8931 158.194 32.0059C159.028 32.1186 159.76 32.2991 160.391 32.5472V31.4307C160.391 30.1902 160.019 29.2203 159.276 28.5211C158.532 27.8219 157.461 27.4723 156.063 27.4723C155.071 27.4723 154.136 27.6527 153.257 28.0136C152.377 28.3519 151.442 28.8369 150.45 29.4684L149.199 26.9648C150.371 26.1753 151.543 25.5889 152.716 25.2054C153.91 24.822 155.161 24.6303 156.469 24.6303C158.836 24.6303 160.696 25.2618 162.048 26.5249C163.423 27.7655 164.111 29.5361 164.111 31.8367V38.4341C164.111 38.8627 164.179 39.1672 164.314 39.3476C164.472 39.5281 164.731 39.6296 165.092 39.6521V42.6294C164.754 42.6971 164.449 42.7422 164.179 42.7648C163.908 42.7873 163.683 42.7986 163.502 42.7986C162.713 42.7986 162.116 42.6069 161.71 42.2234C161.304 41.84 161.068 41.3889 161 40.8701L160.899 39.8551C160.132 40.8476 159.152 41.6144 157.957 42.1558C156.762 42.6971 155.556 42.9678 154.339 42.9678C153.166 42.9678 152.118 42.7309 151.194 42.2573C150.27 41.761 149.548 41.0957 149.03 40.2611C148.511 39.4266 148.252 38.4905 148.252 37.453ZM159.512 38.5356C159.783 38.2424 159.997 37.9492 160.155 37.656C160.313 37.3628 160.391 37.1034 160.391 36.8778V34.8478C159.76 34.5997 159.095 34.4193 158.396 34.3065C157.698 34.1712 157.01 34.1035 156.334 34.1035C154.981 34.1035 153.877 34.3742 153.02 34.9155C152.186 35.4568 151.769 36.2012 151.769 37.1485C151.769 37.6673 151.904 38.1635 152.175 38.6371C152.468 39.1108 152.873 39.4942 153.392 39.7875C153.933 40.0807 154.598 40.2273 155.387 40.2273C156.198 40.2273 156.976 40.0694 157.72 39.7536C158.464 39.4378 159.061 39.0318 159.512 38.5356ZM177.55 28.1489C176.108 28.1715 174.823 28.4985 173.696 29.1301C172.591 29.7616 171.802 30.6526 171.329 31.8029V42.6294H167.609V24.9348H171.058V28.8932C171.667 27.6753 172.467 26.7054 173.459 25.9836C174.451 25.2393 175.499 24.8333 176.604 24.7656C176.829 24.7656 177.009 24.7656 177.145 24.7656C177.302 24.7656 177.438 24.7769 177.55 24.7994V28.1489ZM185.978 42.7986C184.783 42.7986 183.69 42.5618 182.698 42.0881C181.706 41.5919 180.849 40.9265 180.128 40.0919C179.429 39.2574 178.877 38.2988 178.471 37.2161C178.088 36.1335 177.896 34.9944 177.896 33.799C177.896 32.5359 178.099 31.3518 178.505 30.2466C178.91 29.1413 179.474 28.1715 180.195 27.3369C180.939 26.4798 181.807 25.8144 182.799 25.3408C183.791 24.8671 184.896 24.6303 186.113 24.6303C187.533 24.6303 188.773 24.9686 189.833 25.6453C190.915 26.3219 191.805 27.2016 192.504 28.2842V24.9348H195.784V42.1219C195.784 43.8361 195.367 45.2909 194.533 46.4864C193.721 47.6818 192.605 48.5953 191.185 49.2269C189.765 49.8584 188.164 50.1742 186.383 50.1742C184.422 50.1742 182.799 49.8358 181.514 49.1592C180.229 48.4825 179.136 47.5578 178.234 46.3849L180.331 44.4226C181.007 45.3699 181.875 46.0917 182.934 46.5879C184.016 47.0841 185.166 47.3322 186.383 47.3322C187.398 47.3322 188.333 47.1405 189.19 46.757C190.069 46.3962 190.768 45.821 191.287 45.0316C191.805 44.2647 192.064 43.2948 192.064 42.1219V39.4153C191.433 40.4754 190.565 41.3099 189.461 41.9189C188.356 42.5054 187.195 42.7986 185.978 42.7986ZM187.195 39.7875C187.759 39.7875 188.3 39.6972 188.818 39.5168C189.337 39.3138 189.81 39.0544 190.238 38.7386C190.689 38.4003 191.072 38.0281 191.388 37.6221C191.704 37.1936 191.929 36.7425 192.064 36.2688V31.6337C191.771 30.8668 191.354 30.2014 190.813 29.6376C190.272 29.0511 189.663 28.6 188.987 28.2842C188.311 27.9685 187.623 27.8106 186.924 27.8106C186.113 27.8106 185.38 27.991 184.727 28.3519C184.095 28.6902 183.554 29.1526 183.103 29.7391C182.653 30.3029 182.303 30.9458 182.055 31.6675C181.807 32.3893 181.683 33.1336 181.683 33.9005C181.683 34.7125 181.819 35.4681 182.089 36.1673C182.382 36.8665 182.777 37.4981 183.273 38.062C183.768 38.6033 184.355 39.0318 185.031 39.3476C185.707 39.6408 186.429 39.7875 187.195 39.7875ZM207.243 42.9678C205.868 42.9678 204.617 42.7309 203.49 42.2573C202.385 41.761 201.427 41.0957 200.616 40.2611C199.804 39.404 199.173 38.4341 198.722 37.3515C198.294 36.2463 198.079 35.0734 198.079 33.8329C198.079 32.1638 198.463 30.6413 199.229 29.2654C199.996 27.867 201.066 26.7505 202.442 25.9159C203.817 25.0588 205.428 24.6303 207.277 24.6303C209.126 24.6303 210.715 25.0588 212.045 25.9159C213.397 26.7505 214.446 27.8557 215.19 29.2316C215.933 30.6074 216.305 32.0848 216.305 33.6637C216.305 33.9344 216.294 34.1937 216.272 34.4418C216.249 34.6674 216.227 34.8591 216.204 35.017H202.036C202.103 36.0545 202.385 36.968 202.881 37.7575C203.4 38.5244 204.053 39.1333 204.842 39.5845C205.631 40.013 206.477 40.2273 207.378 40.2273C208.37 40.2273 209.306 39.9792 210.185 39.483C211.087 38.9867 211.695 38.3326 212.011 37.5206L215.19 38.4341C214.806 39.2912 214.22 40.0694 213.431 40.7686C212.665 41.4453 211.752 41.9866 210.692 42.3926C209.633 42.776 208.483 42.9678 207.243 42.9678ZM201.934 32.5472H212.62C212.552 31.5322 212.259 30.6413 211.741 29.8744C211.245 29.085 210.602 28.476 209.813 28.0474C209.047 27.5963 208.19 27.3708 207.243 27.3708C206.319 27.3708 205.462 27.5963 204.673 28.0474C203.907 28.476 203.276 29.085 202.78 29.8744C202.284 30.6413 202.002 31.5322 201.934 32.5472ZM228 41.7159C227.684 41.8738 227.29 42.043 226.816 42.2234C226.343 42.4039 225.802 42.5618 225.193 42.6971C224.607 42.8324 223.999 42.9001 223.367 42.9001C222.601 42.9001 221.891 42.7648 221.237 42.4941C220.583 42.2234 220.054 41.7949 219.648 41.2084C219.265 40.5994 219.073 39.8213 219.073 38.874V27.8106H216.74V24.9348H219.073V19.1155H222.793V24.9348H226.647V27.8106H222.793V37.6898C222.838 38.2988 223.029 38.7499 223.367 39.0431C223.728 39.3363 224.168 39.483 224.686 39.483C225.205 39.483 225.701 39.3927 226.174 39.2123C226.647 39.0318 226.997 38.8852 227.222 38.7725L228 41.7159Z" fill="white"/>
</svg>
