<svg width="28" height="28" viewBox="0 0 28 28" fill="none" xmlns="http://www.w3.org/2000/svg">
<g clip-path="url(#clip0_180_70)">
<path d="M15.1665 1.16678C15.1665 0.857356 15.2894 0.56061 15.5082 0.341817C15.727 0.123025 16.0237 0.000108369 16.3331 0.000108369C19.4263 0.00350523 22.3918 1.23376 24.579 3.42095C26.7661 5.60814 27.9964 8.57363 27.9998 11.6668C27.9998 11.9762 27.8769 12.2729 27.6581 12.4917C27.4393 12.7105 27.1425 12.8334 26.8331 12.8334C26.5237 12.8334 26.227 12.7105 26.0082 12.4917C25.7894 12.2729 25.6665 11.9762 25.6665 11.6668C25.6637 9.19228 24.6795 6.81992 22.9297 5.07018C21.18 3.32044 18.8076 2.33622 16.3331 2.33344C16.0237 2.33344 15.727 2.21053 15.5082 1.99173C15.2894 1.77294 15.1665 1.47619 15.1665 1.16678V1.16678ZM16.3331 7.00011C17.5708 7.00011 18.7578 7.49177 19.633 8.36694C20.5081 9.24211 20.9998 10.4291 20.9998 11.6668C20.9998 11.9762 21.1227 12.2729 21.3415 12.4917C21.5603 12.7105 21.857 12.8334 22.1665 12.8334C22.4759 12.8334 22.7726 12.7105 22.9914 12.4917C23.2102 12.2729 23.3331 11.9762 23.3331 11.6668C23.3313 9.81083 22.5932 8.03143 21.2808 6.71908C19.9685 5.40672 18.1891 4.66863 16.3331 4.66678C16.0237 4.66678 15.727 4.78969 15.5082 5.00848C15.2894 5.22728 15.1665 5.52402 15.1665 5.83344C15.1665 6.14286 15.2894 6.43961 15.5082 6.6584C15.727 6.87719 16.0237 7.00011 16.3331 7.00011V7.00011ZM26.9416 19.5289C27.6177 20.2069 27.9974 21.1253 27.9974 22.0828C27.9974 23.0402 27.6177 23.9586 26.9416 24.6366L25.88 25.8604C16.325 35.0083 -6.92667 11.7624 2.07998 2.17711L3.42165 1.01044C4.10038 0.353232 5.01057 -0.0103344 5.9553 -0.00160098C6.90004 0.00713241 7.80335 0.387463 8.46981 1.05711C8.50598 1.09328 10.6678 3.90144 10.6678 3.90144C11.3093 4.57534 11.6664 5.47053 11.6648 6.40091C11.6633 7.3313 11.3033 8.22531 10.6596 8.89711L9.30864 10.5958C10.0563 12.4124 11.1555 14.0634 12.5432 15.4539C13.9309 16.8444 15.5797 17.947 17.3948 18.6983L19.104 17.3391C19.7759 16.6959 20.6697 16.3364 21.5998 16.3351C22.5299 16.3337 23.4248 16.6908 24.0985 17.3321C24.0985 17.3321 26.9055 19.4928 26.9416 19.5289ZM25.3363 21.2253C25.3363 21.2253 22.5445 19.0774 22.5083 19.0413C22.2679 18.803 21.9432 18.6693 21.6047 18.6693C21.2662 18.6693 20.9415 18.803 20.7011 19.0413C20.6696 19.0739 18.3165 20.9488 18.3165 20.9488C18.1579 21.075 17.9692 21.1577 17.7689 21.1888C17.5686 21.2199 17.3637 21.1983 17.1743 21.1261C14.8228 20.2506 12.687 18.88 10.9114 17.107C9.1359 15.3341 7.76211 13.2003 6.88315 10.8501C6.80521 10.6581 6.7798 10.4489 6.80953 10.2438C6.83926 10.0388 6.92306 9.84537 7.05231 9.68344C7.05231 9.68344 8.92714 7.32911 8.95864 7.29878C9.19696 7.05843 9.33067 6.73366 9.33067 6.39519C9.33067 6.05672 9.19696 5.73196 8.95864 5.49161C8.92248 5.45661 6.77465 2.66244 6.77465 2.66244C6.5307 2.4437 6.21232 2.32655 5.88477 2.33501C5.55722 2.34347 5.24531 2.4769 5.01298 2.70794L3.67132 3.87461C-2.91101 11.7893 17.2385 30.8211 24.1743 24.2668L25.2371 23.0418C25.4862 22.8111 25.6358 22.4926 25.6543 22.1536C25.6728 21.8146 25.5588 21.4817 25.3363 21.2253V21.2253Z" fill="white"/>
</g>
<defs>
<clipPath id="clip0_180_70">
<rect width="28" height="28" fill="white"/>
</clipPath>
</defs>
</svg>
