<svg width="28" height="28" viewBox="0 0 28 28" fill="none" xmlns="http://www.w3.org/2000/svg">
<g clip-path="url(#clip0_179_66)">
<path d="M26.2022 9.45015L18.1242 1.70815C17.0294 0.624891 15.5524 0.0158305 14.0123 0.012556C12.4722 0.00928151 10.9927 0.612056 9.89333 1.69065L1.79667 9.45015C1.23038 9.99556 0.779523 10.6492 0.470877 11.3724C0.162231 12.0955 0.00210026 12.8733 0 13.6595L0 22.1668C0.0018525 23.7133 0.617029 25.196 1.71059 26.2896C2.80415 27.3831 4.28681 27.9983 5.83333 28.0001H22.1667C23.7132 27.9983 25.1958 27.3831 26.2894 26.2896C27.383 25.196 27.9981 23.7133 28 22.1668V13.6595C27.9979 12.8731 27.8377 12.0952 27.5289 11.3721C27.22 10.649 26.7688 9.99534 26.2022 9.45015V9.45015ZM11.5255 3.35781C12.187 2.70214 13.0818 2.33583 14.0132 2.33933C14.9446 2.34283 15.8366 2.71585 16.4932 3.37648L24.3647 10.9178L16.4745 18.8091C15.8075 19.4449 14.9214 19.7996 14 19.7996C13.0786 19.7996 12.1925 19.4449 11.5255 18.8091L3.63417 10.9178L11.5255 3.35781ZM25.6667 22.1668C25.6667 23.0951 25.2979 23.9853 24.6415 24.6417C23.9852 25.2981 23.0949 25.6668 22.1667 25.6668H5.83333C4.90508 25.6668 4.01484 25.2981 3.35846 24.6417C2.70208 23.9853 2.33333 23.0951 2.33333 22.1668V13.6595C2.33451 13.433 2.35756 13.2072 2.40217 12.9851L9.87583 20.4588C10.9733 21.5456 12.4555 22.1552 14 22.1552C15.5445 22.1552 17.0267 21.5456 18.1242 20.4588L25.5978 12.9851C25.6424 13.2072 25.6655 13.433 25.6667 13.6595V22.1668Z" fill="#E31111"/>
</g>
<defs>
<clipPath id="clip0_179_66">
<rect width="28" height="28" fill="white"/>
</clipPath>
</defs>
</svg>
