<svg width="58" height="58" viewBox="0 0 58 58" fill="none" xmlns="http://www.w3.org/2000/svg">
<g clip-path="url(#clip0_140_457)">
<path d="M48.3338 29.0002C46.8512 28.9999 45.3885 29.3412 44.0591 29.9975C42.7297 30.6538 41.5694 31.6075 40.6681 32.7847L40.4989 32.7122C41.1636 30.6532 41.2632 28.4536 40.7874 26.343C40.3116 24.2324 39.2778 22.2882 37.7941 20.7136C36.3103 19.139 34.4309 17.9916 32.3523 17.3913C30.2737 16.791 28.072 16.7599 25.9772 17.3011L25.7573 16.8855C27.5127 15.3236 28.6383 13.1752 28.9231 10.8429C29.2079 8.51062 28.6325 6.15449 27.3045 4.21609C25.9766 2.2777 23.9874 0.890095 21.7096 0.313339C19.4319 -0.263418 17.022 0.0102598 14.9315 1.08308C12.8411 2.1559 11.2137 3.95423 10.3542 6.14103C9.49475 8.32784 9.46226 10.753 10.2628 12.9621C11.0634 15.1711 12.6421 17.0124 14.703 18.1408C16.7639 19.2693 19.1656 19.6074 21.458 19.0919L21.6344 19.423C19.2179 21.2773 17.5923 23.9772 17.084 26.9805C16.5756 29.9839 17.2222 33.0683 18.8939 35.6146L14.3385 39.8752C12.2794 38.7376 9.87618 38.3898 7.57908 38.8971C5.28198 39.4045 3.24872 40.732 1.86029 42.6311C0.471869 44.5301 -0.176416 46.8702 0.0369201 49.213C0.250256 51.5557 1.31057 53.7403 3.01917 55.3573C4.72777 56.9743 6.96739 57.9128 9.31834 57.9968C11.6693 58.0809 13.9702 57.3048 15.7899 55.8139C17.6097 54.3231 18.8233 52.2198 19.2034 49.8983C19.5835 47.5768 19.104 45.1963 17.8548 43.203L22.2966 39.0511C24.7362 40.6817 27.6864 41.3675 30.595 40.98C33.5037 40.5926 36.1715 39.1585 38.0992 36.9462L38.7734 37.2338C38.4809 39.1851 38.7926 41.1793 39.6665 42.9484C40.5404 44.7174 41.9348 46.1767 43.6623 47.1301C45.3898 48.0836 47.3677 48.4855 49.3304 48.282C51.293 48.0784 53.1464 47.2792 54.6415 45.9916C56.1366 44.7039 57.2019 42.9896 57.6942 41.0789C58.1865 39.1681 58.0824 37.1525 57.3956 35.3026C56.7089 33.4528 55.4726 31.8575 53.8527 30.7308C52.2328 29.6042 50.3069 29.0003 48.3338 29.0002V29.0002ZM14.5004 9.66687C14.5004 8.71093 14.7839 7.77645 15.315 6.98162C15.8461 6.18678 16.601 5.56728 17.4841 5.20146C18.3673 4.83563 19.3391 4.73992 20.2767 4.92641C21.2143 5.11291 22.0755 5.57324 22.7515 6.24919C23.4274 6.92514 23.8877 7.78636 24.0742 8.72394C24.2607 9.66151 24.165 10.6333 23.7992 11.5165C23.4334 12.3997 22.8139 13.1545 22.019 13.6856C21.2242 14.2167 20.2897 14.5002 19.3338 14.5002C18.0519 14.5002 16.8225 13.991 15.9161 13.0846C15.0097 12.1781 14.5004 10.9488 14.5004 9.66687ZM9.6671 53.1669C8.71116 53.1669 7.77668 52.8834 6.98184 52.3523C6.18701 51.8212 5.56751 51.0664 5.20168 50.1832C4.83586 49.3 4.74014 48.3282 4.92664 47.3906C5.11313 46.453 5.57346 45.5918 6.24942 44.9159C6.92537 44.2399 7.78659 43.7796 8.72416 43.5931C9.66174 43.4066 10.6336 43.5023 11.5167 43.8681C12.3999 44.2339 13.1548 44.8534 13.6859 45.6483C14.217 46.4431 14.5004 47.3776 14.5004 48.3335C14.5004 49.6154 13.9912 50.8448 13.0848 51.7512C12.1784 52.6576 10.949 53.1669 9.6671 53.1669ZM29.0004 36.2502C27.4313 36.2471 25.9055 35.735 24.6522 34.7908C23.3988 33.8466 22.4857 32.5213 22.0499 31.0139C21.614 29.5065 21.679 27.8983 22.2351 26.431C22.7912 24.9636 23.8083 23.7163 25.1338 22.8764L26.1174 22.352C27.1057 21.922 28.1774 21.7179 29.2546 21.7544C30.3317 21.7908 31.3872 22.067 32.3442 22.5627C33.3011 23.0585 34.1355 23.7614 34.7867 24.6202C35.4378 25.4791 35.8892 26.4723 36.1081 27.5276C36.3271 28.5829 36.3079 29.6737 36.0522 30.7207C35.7964 31.7677 35.3104 32.7445 34.6296 33.58C33.9488 34.4155 33.0902 35.0887 32.1165 35.5506C31.1427 36.0125 30.0782 36.2515 29.0004 36.2502V36.2502ZM48.3338 43.5002C47.3778 43.5002 46.4433 43.2167 45.6485 42.6856C44.8537 42.1545 44.2342 41.3997 43.8684 40.5165C43.5025 39.6333 43.4068 38.6615 43.5933 37.7239C43.7798 36.7864 44.2401 35.9251 44.9161 35.2492C45.592 34.5732 46.4533 34.1129 47.3908 33.9264C48.3284 33.7399 49.3002 33.8356 50.1834 34.2015C51.0666 34.5673 51.8214 35.1868 52.3525 35.9816C52.8836 36.7765 53.1671 37.7109 53.1671 38.6669C53.1671 39.9488 52.6579 41.1781 51.7515 42.0846C50.845 42.991 49.6157 43.5002 48.3338 43.5002Z" fill="#E31111"/>
</g>
<defs>
<clipPath id="clip0_140_457">
<rect width="58" height="58" fill="white"/>
</clipPath>
</defs>
</svg>
