<svg width="28" height="28" viewBox="0 0 28 28" fill="none" xmlns="http://www.w3.org/2000/svg">
<g clip-path="url(#clip0_179_72)">
<path d="M14.0002 7C13.0772 7 12.1749 7.2737 11.4075 7.78647C10.6401 8.29925 10.0419 9.02809 9.68873 9.88081C9.33552 10.7335 9.2431 11.6718 9.42317 12.5771C9.60323 13.4823 10.0477 14.3139 10.7003 14.9665C11.353 15.6191 12.1845 16.0636 13.0897 16.2437C13.995 16.4237 14.9333 16.3313 15.786 15.9781C16.6387 15.6249 17.3676 15.0268 17.8804 14.2593C18.3931 13.4919 18.6668 12.5896 18.6668 11.6667C18.6668 10.429 18.1752 9.242 17.3 8.36683C16.4248 7.49167 15.2378 7 14.0002 7ZM14.0002 14C13.5387 14 13.0875 13.8632 12.7038 13.6068C12.3201 13.3504 12.0211 12.986 11.8444 12.5596C11.6678 12.1332 11.6216 11.6641 11.7117 11.2115C11.8017 10.7588 12.0239 10.3431 12.3502 10.0168C12.6766 9.69043 13.0923 9.4682 13.545 9.37817C13.9976 9.28814 14.4667 9.33434 14.8931 9.51095C15.3195 9.68755 15.6839 9.98662 15.9403 10.3703C16.1967 10.7541 16.3335 11.2052 16.3335 11.6667C16.3335 12.2855 16.0877 12.879 15.6501 13.3166C15.2125 13.7542 14.619 14 14.0002 14Z" fill="white"/>
<path d="M13.9999 28.0003C13.0175 28.0054 12.0482 27.775 11.1731 27.3284C10.2981 26.8818 9.54274 26.2321 8.97038 25.4337C4.52421 19.3005 2.26904 14.6898 2.26904 11.7288C2.26904 8.61762 3.50497 5.63384 5.70492 3.43388C7.90488 1.23392 10.8887 -0.0019989 13.9999 -0.0019989C17.1111 -0.0019989 20.0949 1.23392 22.2948 3.43388C24.4948 5.63384 25.7307 8.61762 25.7307 11.7288C25.7307 14.6898 23.4755 19.3005 19.0294 25.4337C18.457 26.2321 17.7017 26.8818 16.8266 27.3284C15.9516 27.775 14.9823 28.0054 13.9999 28.0003V28.0003ZM13.9999 2.54483C11.5644 2.54761 9.2294 3.51635 7.50723 5.23852C5.78506 6.96069 4.81632 9.29565 4.81354 11.7312C4.81354 14.0762 7.02204 18.4127 11.0307 23.9415C11.371 24.4102 11.8175 24.7918 12.3335 25.0548C12.8496 25.3179 13.4206 25.455 13.9999 25.455C14.5791 25.455 15.1501 25.3179 15.6662 25.0548C16.1823 24.7918 16.6287 24.4102 16.969 23.9415C20.9777 18.4127 23.1862 14.0762 23.1862 11.7312C23.1834 9.29565 22.2147 6.96069 20.4925 5.23852C18.7704 3.51635 16.4354 2.54761 13.9999 2.54483V2.54483Z" fill="white"/>
</g>
<defs>
<clipPath id="clip0_179_72">
<rect width="28" height="28" fill="white"/>
</clipPath>
</defs>
</svg>
