<svg width="58" height="58" viewBox="0 0 58 58" fill="none" xmlns="http://www.w3.org/2000/svg">
<g clip-path="url(#clip0_157_132)">
<path d="M48.3338 0.000521853H44.0877C42.8175 -0.00283625 41.5592 0.245763 40.3857 0.731931C39.2121 1.2181 38.1467 1.93218 37.251 2.83286L29.4161 10.6677C27.6081 12.4834 26.5901 14.9396 26.5838 17.502V25.8709C18.691 31.7072 8.26304 39.484 6.95804 40.7914C5.90654 41.85 5.20811 43.2078 4.95848 44.6788C4.70884 46.1497 4.92021 47.6619 5.56363 49.0081L0.708544 53.8753C0.255489 54.3285 0.000976563 54.943 0.000976562 55.5839C0.000976562 56.2247 0.255489 56.8392 0.708544 57.2924C1.16174 57.7455 1.77631 58 2.41713 58C3.05794 58 3.67252 57.7455 4.12571 57.2924L8.97596 52.4422C10.3224 53.0989 11.8408 53.3171 13.3177 53.0661C14.7946 52.8152 16.1556 52.1076 17.2095 51.0429C18.517 49.7355 26.2938 39.31 32.1421 31.4172H40.5086C41.7789 31.4205 43.0372 31.1719 44.2107 30.6858C45.3842 30.1996 46.4497 29.4855 47.3454 28.5849L55.1802 20.75C56.9838 18.9323 57.9973 16.4764 58.0005 13.9157V9.66719C58.0005 7.10343 56.982 4.64467 55.1692 2.83182C53.3563 1.01897 50.8975 0.000521853 48.3338 0.000521853V0.000521853ZM13.7924 47.6258C13.3329 48.0668 12.7207 48.3131 12.0838 48.3131C11.4469 48.3131 10.8347 48.0668 10.3752 47.6258C9.92216 47.1726 9.66764 46.558 9.66764 45.9172C9.66764 45.2764 9.92216 44.6618 10.3752 44.2086C11.1945 43.3966 17.6252 38.5464 24.7495 33.2514C19.4522 40.3734 14.602 46.8089 13.7924 47.6258V47.6258ZM53.1671 13.9157C53.1639 15.1969 52.655 16.425 51.751 17.3329L43.9161 25.1677C43.4679 25.6179 42.935 25.9748 42.348 26.2179C41.7611 26.461 41.1318 26.5854 40.4965 26.5839H35.697L38.092 23.3262L47.6257 13.7924C47.8565 13.5695 48.0406 13.3028 48.1673 13.008C48.2939 12.7132 48.3606 12.396 48.3634 12.0752C48.3662 11.7543 48.305 11.436 48.1835 11.139C48.062 10.8421 47.8826 10.5722 47.6557 10.3453C47.4288 10.1184 47.1589 9.93896 46.8619 9.81745C46.5649 9.69594 46.2467 9.6348 45.9258 9.63758C45.6049 9.64037 45.2878 9.70704 44.993 9.83369C44.6981 9.96035 44.4315 10.1445 44.2085 10.3753L34.6772 19.9066L31.4171 22.3039V17.502C31.4203 16.2208 31.9293 14.9927 32.8333 14.0849L40.6681 6.25002C41.1163 5.79981 41.6493 5.44286 42.2362 5.19979C42.8232 4.95672 43.4524 4.83235 44.0877 4.83386H48.3338C49.6157 4.83386 50.845 5.34308 51.7515 6.24951C52.6579 7.15593 53.1671 8.38531 53.1671 9.66719V13.9157Z" fill="#E31111"/>
</g>
<defs>
<clipPath id="clip0_157_132">
<rect width="58" height="58" fill="white"/>
</clipPath>
</defs>
</svg>
