<svg width="37" height="37" viewBox="0 0 37 37" fill="none" xmlns="http://www.w3.org/2000/svg">
<path fill-rule="evenodd" clip-rule="evenodd" d="M11.5084 1.64341C13.3168 1.56016 13.8933 1.54166 18.4998 1.54166C23.1063 1.54166 23.6829 1.5617 25.4898 1.64341C27.2966 1.72511 28.5299 2.01341 29.6091 2.4312C30.7391 2.85824 31.7643 3.52578 32.6122 4.38911C33.4756 5.23549 34.1416 6.25916 34.5671 7.39074C34.9864 8.46991 35.2732 9.70324 35.3564 11.507C35.4397 13.3184 35.4582 13.895 35.4582 18.5C35.4582 23.1065 35.4381 23.6831 35.3564 25.4914C35.2747 27.2952 34.9864 28.5285 34.5671 29.6077C34.1416 30.7394 33.4745 31.7648 32.6122 32.6124C31.7643 33.4757 30.7391 34.1417 29.6091 34.5672C28.5299 34.9866 27.2966 35.2733 25.4928 35.3566C23.6829 35.4398 23.1063 35.4583 18.4998 35.4583C13.8933 35.4583 13.3168 35.4383 11.5084 35.3566C9.70463 35.2749 8.47129 34.9866 7.39213 34.5672C6.26042 34.1417 5.23506 33.4746 4.38742 32.6124C3.52467 31.7655 2.85703 30.7406 2.43105 29.6092C2.01325 28.5301 1.7265 27.2967 1.64325 25.493C1.56 23.6815 1.5415 23.1049 1.5415 18.5C1.5415 13.8935 1.56155 13.3169 1.64325 11.5101C1.72496 9.70324 2.01325 8.46991 2.43105 7.39074C2.85766 6.25928 3.52581 5.23443 4.38896 4.38757C5.2354 3.52501 6.25973 2.85738 7.39059 2.4312C8.46975 2.01341 9.70309 1.72666 11.5068 1.64341H11.5084ZM25.3525 4.69591C23.5642 4.6142 23.0277 4.59724 18.4998 4.59724C13.972 4.59724 13.4355 4.6142 11.6471 4.69591C9.99292 4.77145 9.09567 5.04741 8.4975 5.2802C7.70663 5.58853 7.14084 5.95391 6.5473 6.54745C5.98466 7.09482 5.55166 7.76117 5.28005 8.49766C5.04725 9.09582 4.7713 9.99307 4.69575 11.6473C4.61405 13.4356 4.59709 13.9721 4.59709 18.5C4.59709 23.0279 4.61405 23.5644 4.69575 25.3527C4.7713 27.0069 5.04725 27.9042 5.28005 28.5023C5.55138 29.2377 5.98459 29.9052 6.5473 30.4525C7.09459 31.0152 7.76213 31.4484 8.4975 31.7198C9.09567 31.9526 9.99292 32.2285 11.6471 32.3041C13.4355 32.3858 13.9704 32.4027 18.4998 32.4027C23.0293 32.4027 23.5642 32.3858 25.3525 32.3041C27.0068 32.2285 27.904 31.9526 28.5022 31.7198C29.293 31.4114 29.8588 31.0461 30.4524 30.4525C31.0151 29.9052 31.4483 29.2377 31.7196 28.5023C31.9524 27.9042 32.2284 27.0069 32.3039 25.3527C32.3856 23.5644 32.4026 23.0279 32.4026 18.5C32.4026 13.9721 32.3856 13.4356 32.3039 11.6473C32.2284 9.99307 31.9524 9.09582 31.7196 8.49766C31.4113 7.70678 31.0459 7.14099 30.4524 6.54745C29.905 5.98485 29.2386 5.55186 28.5022 5.2802C27.904 5.04741 27.0068 4.77145 25.3525 4.69591V4.69591ZM16.3338 23.7278C17.5435 24.2313 18.8905 24.2993 20.1447 23.9201C21.3989 23.5408 22.4826 22.7379 23.2106 21.6484C23.9386 20.559 24.2658 19.2506 24.1362 17.9467C24.0067 16.6428 23.4286 15.4243 22.5005 14.4994C21.9088 13.9081 21.1935 13.4554 20.4058 13.1738C19.6182 12.8921 18.778 12.7887 17.9456 12.8708C17.1132 12.9529 16.3094 13.2185 15.592 13.6486C14.8745 14.0786 14.2614 14.6624 13.7967 15.3578C13.332 16.0533 13.0272 16.8431 12.9044 17.6705C12.7816 18.4979 12.8437 19.3422 13.0863 20.1427C13.329 20.9431 13.7461 21.6798 14.3076 22.2998C14.8691 22.9197 15.5611 23.4074 16.3338 23.7278ZM12.3363 12.3364C13.1457 11.527 14.1066 10.8849 15.1641 10.4469C16.2217 10.0088 17.3552 9.78337 18.4998 9.78337C19.6445 9.78337 20.778 10.0088 21.8355 10.4469C22.8931 10.8849 23.854 11.527 24.6634 12.3364C25.4728 13.1458 26.1149 14.1067 26.5529 15.1643C26.991 16.2218 27.2165 17.3553 27.2165 18.5C27.2165 19.6447 26.991 20.7781 26.5529 21.8357C26.1149 22.8932 25.4728 23.8542 24.6634 24.6636C23.0287 26.2983 20.8116 27.2166 18.4998 27.2166C16.188 27.2166 13.9709 26.2983 12.3363 24.6636C10.7016 23.0289 9.78321 20.8118 9.78321 18.5C9.78321 16.1882 10.7016 13.9711 12.3363 12.3364V12.3364ZM29.1497 11.0815C29.3502 10.8923 29.5108 10.6647 29.6219 10.4124C29.733 10.16 29.7923 9.88788 29.7963 9.61217C29.8003 9.33646 29.7489 9.06275 29.6453 8.80724C29.5416 8.55173 29.3878 8.31961 29.1928 8.12463C28.9978 7.92966 28.7657 7.77578 28.5102 7.67212C28.2547 7.56846 27.9809 7.51712 27.7052 7.52114C27.4295 7.52516 27.1574 7.58446 26.905 7.69552C26.6527 7.80659 26.4251 7.96716 26.2359 8.16774C25.8679 8.55783 25.6665 9.07597 25.6743 9.61217C25.6821 10.1484 25.8986 10.6604 26.2778 11.0396C26.657 11.4188 27.169 11.6353 27.7052 11.6431C28.2414 11.6509 28.7596 11.4495 29.1497 11.0815V11.0815Z" fill="white"/>
</svg>
