<svg width="58" height="58" viewBox="0 0 58 58" fill="none" xmlns="http://www.w3.org/2000/svg">
<path d="M45.9167 9.66667H43.2583C42.6974 6.93925 41.2134 4.48859 39.0564 2.72774C36.8993 0.966884 34.2012 0.0035151 31.4167 0L26.5833 0C23.7988 0.0035151 21.1007 0.966884 18.9436 2.72774C16.7866 4.48859 15.3026 6.93925 14.7417 9.66667H12.0833C8.87981 9.6705 5.8086 10.9448 3.54336 13.21C1.27813 15.4753 0.00383732 18.5465 0 21.75L0 45.9167C0.00383732 49.1202 1.27813 52.1914 3.54336 54.4566C5.8086 56.7219 8.87981 57.9962 12.0833 58H45.9167C49.1202 57.9962 52.1914 56.7219 54.4566 54.4566C56.7219 52.1914 57.9962 49.1202 58 45.9167V21.75C57.9962 18.5465 56.7219 15.4753 54.4566 13.21C52.1914 10.9448 49.1202 9.6705 45.9167 9.66667V9.66667ZM26.5833 4.83333H31.4167C32.9108 4.83953 34.3665 5.3072 35.5847 6.17238C36.8029 7.03755 37.724 8.25797 38.222 9.66667H19.778C20.276 8.25797 21.1971 7.03755 22.4153 6.17238C23.6335 5.3072 25.0892 4.83953 26.5833 4.83333V4.83333ZM12.0833 14.5H45.9167C47.8395 14.5 49.6836 15.2638 51.0432 16.6235C52.4028 17.9831 53.1667 19.8272 53.1667 21.75V29H4.83333V21.75C4.83333 19.8272 5.59717 17.9831 6.95681 16.6235C8.31645 15.2638 10.1605 14.5 12.0833 14.5V14.5ZM45.9167 53.1667H12.0833C10.1605 53.1667 8.31645 52.4028 6.95681 51.0432C5.59717 49.6836 4.83333 47.8395 4.83333 45.9167V33.8333H26.5833V36.25C26.5833 36.8909 26.8379 37.5056 27.2912 37.9588C27.7444 38.4121 28.3591 38.6667 29 38.6667C29.6409 38.6667 30.2556 38.4121 30.7088 37.9588C31.1621 37.5056 31.4167 36.8909 31.4167 36.25V33.8333H53.1667V45.9167C53.1667 47.8395 52.4028 49.6836 51.0432 51.0432C49.6836 52.4028 47.8395 53.1667 45.9167 53.1667Z" fill="#E31111"/>
</svg>
