<svg width="58" height="58" viewBox="0 0 58 58" fill="none" xmlns="http://www.w3.org/2000/svg">
<g clip-path="url(#clip0_140_453)">
<path d="M58.0003 28.959C57.9952 26.9917 57.389 25.073 56.263 23.4598C55.137 21.8466 53.545 20.616 51.7001 19.9328L51.6083 19.7129C49.2108 13.8487 44.6211 9.15052 38.8144 6.61693L38.0193 6.26893C37.3348 4.42965 36.1042 2.84369 34.4925 1.72383C32.8809 0.603973 30.9653 0.00378418 29.0028 0.00378418C27.0402 0.00378418 25.1246 0.603973 23.513 1.72383C21.9013 2.84369 20.6707 4.42965 19.9862 6.26893L18.976 6.72327C13.2208 9.33725 8.69116 14.0642 6.32475 19.9255C4.47684 20.5988 2.87973 21.8224 1.74868 23.4313C0.617626 25.0403 0.00700171 26.9574 -0.000898917 28.9241C-0.00879954 30.8908 0.586403 32.8127 1.70449 34.4307C2.82258 36.0487 4.4098 37.2851 6.25225 37.9732L6.56159 38.6982C8.98635 44.3263 13.4395 48.8364 19.0364 51.3325L19.9862 51.7579C20.6726 53.5945 21.9037 55.1777 23.5147 56.2954C25.1256 57.4131 27.0396 58.012 29.0003 58.012C30.9611 58.012 32.875 57.4131 34.486 56.2954C36.097 55.1777 37.3281 53.5945 38.0145 51.7579L38.9014 51.3639C44.756 48.7461 49.3588 43.9482 51.7315 37.9901C53.5701 37.2998 55.1548 36.0658 56.2747 34.4525C57.3946 32.8391 57.9965 30.9229 58.0003 28.959ZM29.0003 4.83343C29.9563 4.83343 30.8908 5.1169 31.6856 5.648C32.4804 6.17909 33.0999 6.93395 33.4658 7.81713C33.8316 8.70031 33.9273 9.67213 33.7408 10.6097C33.5543 11.5473 33.094 12.4085 32.418 13.0845C31.7421 13.7604 30.8808 14.2207 29.9433 14.4072C29.0057 14.5937 28.0339 14.498 27.1507 14.1322C26.2675 13.7664 25.5127 13.1469 24.9816 12.352C24.4505 11.5572 24.167 10.6227 24.167 9.66677C24.167 8.38489 24.6762 7.15551 25.5827 6.24908C26.4891 5.34266 27.7185 4.83343 29.0003 4.83343ZM9.638 24.1305L9.83617 24.2054L9.86033 24.145C11.0713 24.2534 12.1908 24.8347 12.9761 25.7629C13.7614 26.6911 14.1492 27.8914 14.0555 29.1036C13.9617 30.3158 13.394 31.4422 12.4753 32.2386C11.5566 33.035 10.3611 33.4373 9.14784 33.3582C7.93459 33.279 6.80141 32.7249 5.99397 31.8159C5.18653 30.9069 4.76989 29.7163 4.83439 28.5022C4.89888 27.2881 5.4393 26.1483 6.3385 25.33C7.23769 24.5116 8.4232 24.0807 9.638 24.1305V24.1305ZM29.0003 53.1668C28.0444 53.1668 27.1099 52.8833 26.3151 52.3522C25.5202 51.8211 24.9007 51.0663 24.5349 50.1831C24.1691 49.2999 24.0734 48.3281 24.2599 47.3905C24.4464 46.4529 24.9067 45.5917 25.5827 44.9158C26.2586 44.2398 27.1198 43.7795 28.0574 43.593C28.995 43.4065 29.9668 43.5022 30.85 43.868C31.7331 44.2338 32.488 44.8533 33.0191 45.6482C33.5502 46.443 33.8337 47.3775 33.8337 48.3334C33.8337 49.6153 33.3244 50.8447 32.418 51.7511C31.5116 52.6575 30.2822 53.1668 29.0003 53.1668ZM38.4084 46.1923C37.9273 44.056 36.7336 42.147 35.0236 40.7792C33.3135 39.4114 31.1889 38.6662 28.9991 38.6662C26.8093 38.6662 24.6847 39.4114 22.9747 40.7792C21.2646 42.147 20.0709 44.056 19.5898 46.1923C16.2901 44.3916 13.5792 41.6782 11.7816 38.3768C13.9112 37.8956 15.8145 36.7061 17.1804 35.0028C18.5462 33.2996 19.2938 31.1833 19.3008 29C19.3078 26.8167 18.5739 24.6957 17.219 22.9837C15.8641 21.2716 13.9685 20.07 11.842 19.5751C13.6462 16.3202 16.3315 13.6399 19.5898 11.8418C20.0729 13.9757 21.2672 15.8819 22.9765 17.2476C24.6859 18.6132 26.8088 19.3571 28.9967 19.3571C31.1846 19.3571 33.3075 18.6132 35.0169 17.2476C36.7262 15.8819 37.9205 13.9757 38.4036 11.8418C41.6595 13.6379 44.3463 16.3113 46.1587 19.5582C44.0257 20.0454 42.1217 21.2433 40.7594 22.9553C39.397 24.6673 38.6572 26.7916 38.6614 28.9795C38.6656 31.1675 39.4136 33.2889 40.7826 34.9957C42.1515 36.7024 44.0601 37.893 46.1949 38.3719C44.3915 41.6629 41.6915 44.3746 38.4084 46.1923ZM48.3337 33.7924C47.3777 33.7924 46.4433 33.5089 45.6484 32.9778C44.8536 32.4467 44.2341 31.6918 43.8683 30.8087C43.5024 29.9255 43.4067 28.9537 43.5932 28.0161C43.7797 27.0785 44.24 26.2173 44.916 25.5413C45.5919 24.8654 46.4532 24.4051 47.3907 24.2186C48.3283 24.0321 49.3001 24.1278 50.1833 24.4936C51.0665 24.8594 51.8213 25.4789 52.3524 26.2738C52.8835 27.0686 53.167 28.0031 53.167 28.959C53.167 30.2409 52.6578 31.4703 51.7514 32.3767C50.8449 33.2831 49.6156 33.7924 48.3337 33.7924Z" fill="#E31111"/>
</g>
<defs>
<clipPath id="clip0_140_453">
<rect width="58" height="58" fill="white"/>
</clipPath>
</defs>
</svg>
